<svg width="24" height="24" viewBox="0 0 24 24" fill="none" xmlns="http://www.w3.org/2000/svg">
<path fill-rule="evenodd" clip-rule="evenodd" d="M3.51458 3.51472C-1.17171 8.20101 -1.17171 15.799 3.51458 20.4853C8.20087 25.1716 15.7988 25.1716 20.4851 20.4853C25.1714 15.799 25.1714 8.20101 20.4851 3.51472C15.7988 -1.17157 8.20087 -1.17157 3.51458 3.51472ZM7.75631 8.50546C7.75631 8.0923 8.09125 7.75736 8.50441 7.75736L15.2416 7.75736C15.7939 7.75736 16.2416 8.20507 16.2416 8.75736L16.2416 15.4945C16.2416 15.9077 15.9067 16.2426 15.4935 16.2426C15.0806 16.2426 14.7458 15.9081 14.7454 15.4952L14.7408 10.3189L8.81697 16.2426C8.52408 16.5355 8.04921 16.5355 7.75631 16.2426C7.46342 15.9497 7.46342 15.4749 7.75631 15.182L13.6801 9.25819L8.50374 9.25356C8.09084 9.25319 7.75631 8.91836 7.75631 8.50546Z" fill="white"/>
</svg>
